<?xml version="1.0" standalone="no"?>
<!DOCTYPE svg PUBLIC "-//W3C//DTD SVG 20010904//EN"
 "http://www.w3.org/TR/2001/REC-SVG-20010904/DTD/svg10.dtd">
<svg version="1.0" xmlns="http://www.w3.org/2000/svg"
viewBox="-10 0 400 400"
 width="70px" height="70px" 
 preserveAspectRatio="xMidYMid meet">

<g transform="translate(0.000000,360.000000) scale(0.100000,-0.100000)"
fill="#ffd500" stroke="none">
<path d="M1650 3134 c-139 -18 -336 -76 -450 -134 -253 -128 -485 -365 -608
-621 -88 -186 -125 -356 -125 -579 0 -329 94 -594 303 -853 189 -235 488 -408
810 -468 98 -19 358 -16 463 5 311 60 600 230 787 463 209 259 304 527 304
853 0 231 -39 400 -136 595 -72 142 -138 235 -253 351 -185 186 -402 306 -661
364 -87 20 -350 34 -434 24z m381 -179 c112 -23 194 -52 299 -106 720 -368
866 -1319 289 -1890 -160 -158 -375 -270 -604 -314 -106 -21 -326 -21 -430 -1
-503 99 -882 500 -949 1006 -23 172 -8 341 46 508 141 444 536 765 1003 816
72 7 270 -3 346 -19z"/>
<path d="M1335 2638 c-4 -14 -5 -18 -35 -302 -23 -211 -22 -220 24 -214 13 2
25 19 37 54 34 102 132 230 224 293 74 51 150 74 250 73 172 -1 273 -68 290
-192 18 -129 -62 -223 -302 -355 l-64 -35 -299 0 -300 0 0 -45 0 -45 205 0
c113 0 205 -3 205 -7 0 -5 -25 -23 -55 -41 -31 -19 -76 -49 -100 -68 -45 -34
-46 -34 -150 -34 l-105 0 0 -50 0 -50 55 0 c30 0 55 -3 55 -7 0 -3 -11 -34
-24 -67 -34 -87 -39 -141 -22 -226 28 -135 104 -224 251 -295 100 -48 163 -64
285 -71 66 -3 110 2 238 30 215 46 226 48 255 37 14 -6 33 -23 41 -39 11 -21
23 -29 41 -29 15 0 28 5 31 11 4 12 48 287 65 406 5 41 12 83 15 93 4 14 -1
17 -28 16 -32 0 -35 -4 -77 -92 -36 -74 -59 -106 -120 -167 -120 -119 -238
-170 -396 -170 -98 -1 -145 10 -193 44 -102 70 -144 145 -136 244 6 77 36 131
118 211 l74 71 341 0 341 0 0 50 0 50 -242 2 -243 3 128 73 127 72 115 0 115
0 0 45 0 45 -55 0 c-30 0 -55 3 -55 6 0 3 11 20 25 38 13 17 36 58 50 89 22
48 26 71 26 145 0 100 -15 150 -68 224 -84 117 -254 190 -425 183 -36 -2 -131
-19 -211 -39 -197 -48 -212 -48 -248 10 -21 35 -65 48 -74 22z"/>
</g>
</svg>
